<?xml version="1.0" encoding="UTF-8" standalone="no"?>
<!-- Created with Inkscape (http://www.inkscape.org/) -->

<svg
   width="69.030815mm"
   height="69.030815mm"
   viewBox="0 0 69.030815 69.030815"
   version="1.1"
   id="svg1"
   inkscape:version="1.3.2 (091e20ef0f, 2023-11-25)"
   sodipodi:docname="gaya.svg"
   xmlns:inkscape="http://www.inkscape.org/namespaces/inkscape"
   xmlns:sodipodi="http://sodipodi.sourceforge.net/DTD/sodipodi-0.dtd"
   xmlns="http://www.w3.org/2000/svg"
   xmlns:svg="http://www.w3.org/2000/svg">
  <sodipodi:namedview
     id="namedview1"
     pagecolor="#505050"
     bordercolor="#eeeeee"
     borderopacity="1"
     inkscape:showpageshadow="0"
     inkscape:pageopacity="0"
     inkscape:pagecheckerboard="0"
     inkscape:deskcolor="#505050"
     inkscape:document-units="mm"
     inkscape:zoom="2.8649832"
     inkscape:cx="163.52627"
     inkscape:cy="124.60806"
     inkscape:window-width="2560"
     inkscape:window-height="1008"
     inkscape:window-x="0"
     inkscape:window-y="0"
     inkscape:window-maximized="1"
     inkscape:current-layer="layer1" />
  <defs
     id="defs1" />
  <g
     inkscape:label="Camada 1"
     inkscape:groupmode="layer"
     id="layer1"
     transform="translate(-109.80208,-82.285416)">
    <g
       id="path29"
       inkscape:transform-center-x="1.7296421e-05"
       inkscape:transform-center-y="1.1260267e-06"
       transform="matrix(1.0418636,-0.27916651,0.27916651,1.0418636,-230.13278,132.02236)">
      <path
         style="color:#000000;fill:#3a3539;-inkscape-stroke:none"
         d="m 354.36142,102.85906 -23.34152,3.07297 -18.67786,-14.332029 -3.07297,-23.341519 14.33203,-18.677863 23.34152,-3.072968 18.67786,14.33203 3.07297,23.341519 z"
         id="path1" />
      <path
         style="color:#000000;fill:#fafcee;-inkscape-stroke:none"
         d="m 347.26367,45.310547 -24.2832,3.197265 -14.9082,19.429688 3.19726,24.28125 19.42969,14.91016 24.28125,-3.19727 14.91015,-19.429687 -3.19726,-24.28125 z m -0.64258,2.394531 17.92578,13.753906 2.94922,22.402344 -13.7539,17.925782 -22.40235,2.94727 -17.92382,-13.753911 -2.94922,-22.400391 13.7539,-17.925781 z"
         id="path2" />
    </g>
    <g
       id="g53"
       style="fill:#fafcee;fill-opacity:1"
       transform="translate(-346.3879,53.280983)">
      <path
         style="fill:#fafcee;fill-opacity:1;stroke:none;stroke-width:2.29007;stroke-dasharray:none;stroke-opacity:1"
         d="m 346.97429,91.682164 a 17.413996,17.413996 0 0 1 -11.71208,1.54238 l -0.78138,2.91613 a 20.431413,20.431413 0 0 0 14.00341,-1.843203 z"
         transform="matrix(0.81346417,-0.21796707,0.21796707,0.81346417,198.34287,75.404482)"
         id="path51" />
      <path
         style="fill:#fafcee;fill-opacity:1;stroke:none;stroke-width:2.29007;stroke-dasharray:none;stroke-opacity:1"
         d="m 324.3739,85.587656 -2.61531,1.509949 a 20.431413,20.431413 0 0 0 11.17177,8.579976 l 0.78328,-2.923241 a 17.413996,17.413996 0 0 1 -9.33974,-7.166684 z"
         transform="matrix(0.81346417,-0.21796707,0.21796707,0.81346417,198.34287,75.404482)"
         id="path50" />
      <path
         style="fill:#fafcee;fill-opacity:1;stroke:none;stroke-width:2.29007;stroke-dasharray:none;stroke-opacity:1"
         d="m 355.56691,81.501617 a 17.413996,17.413996 0 0 1 -7.19119,9.371928 l 1.50952,2.614556 a 20.431413,20.431413 0 0 0 8.59839,-11.204951 z"
         transform="matrix(0.81346417,-0.21796707,0.21796707,0.81346417,198.34287,75.404482)"
         id="path48" />
      <path
         style="fill:#fafcee;fill-opacity:1;stroke:none;stroke-width:2.29007;stroke-dasharray:none;stroke-opacity:1"
         d="m 319.10463,71.731578 a 20.431413,20.431413 0 0 0 1.84534,13.964591 l 2.61456,-1.509514 a 17.413996,17.413996 0 0 1 -1.53607,-11.671638 z"
         transform="matrix(0.81346417,-0.21796707,0.21796707,0.81346417,198.34287,75.404482)"
         id="path47" />
      <path
         style="fill:#fafcee;fill-opacity:1;stroke:none;stroke-width:2.29007;stroke-dasharray:none;stroke-opacity:1"
         d="m 357.01264,66.743674 -2.61456,1.509514 a 17.413996,17.413996 0 0 1 1.53606,11.671638 l 2.92384,0.783439 a 20.431413,20.431413 0 0 0 -1.84534,-13.964591 z"
         transform="matrix(0.81346417,-0.21796707,0.21796707,0.81346417,198.34287,75.404482)"
         id="path45" />
      <path
         style="fill:#fafcee;fill-opacity:1;stroke:none;stroke-width:2.29007;stroke-dasharray:none;stroke-opacity:1"
         d="m 328.10384,58.997585 a 20.431413,20.431413 0 0 0 -8.58041,11.171019 l 2.92383,0.783439 a 17.413996,17.413996 0 0 1 7.16609,-9.339903 z"
         transform="matrix(0.81346417,-0.21796707,0.21796707,0.81346417,198.34287,75.404482)"
         id="path44" />
      <path
         style="fill:#fafcee;fill-opacity:1;stroke:none;stroke-width:2.29007;stroke-dasharray:none;stroke-opacity:1"
         d="m 345.03225,56.762261 -0.78328,2.923242 a 17.413996,17.413996 0 0 1 9.33974,7.166683 l 2.61515,-1.509355 a 20.431413,20.431413 0 0 0 -11.17161,-8.58057 z"
         transform="matrix(0.81346417,-0.21796707,0.21796707,0.81346417,198.34287,75.404482)"
         id="path43" />
      <path
         style="fill:#fafcee;fill-opacity:1;stroke:none;stroke-width:2.29007;stroke-dasharray:none;stroke-opacity:1"
         d="m 343.46987,56.343623 a 20.431413,20.431413 0 0 0 -13.96519,1.845185 l 1.51011,2.614714 a 17.413996,17.413996 0 0 1 11.67179,-1.536658 z"
         transform="matrix(0.81346417,-0.21796707,0.21796707,0.81346417,198.34287,75.404482)"
         id="path42" />
    </g>
    <g
       id="g54"
       style="fill:#f5a623;fill-opacity:1"
       transform="translate(-346.3879,53.280983)">
      <path
         style="fill:#f5a623;fill-opacity:1;stroke:none;stroke-width:2.29007;stroke-dasharray:none;stroke-opacity:1"
         d="m 350.63157,98.016769 a 24.718279,24.718279 0 0 1 -17.26086,2.266941 l -1.48287,5.53413 21.60526,-2.84476 z"
         transform="matrix(0.81346417,-0.21796707,0.21796707,0.81346417,198.34287,75.404482)"
         id="path53" />
      <path
         style="fill:#f5a623;fill-opacity:1;stroke:none;stroke-width:2.29007;stroke-dasharray:none;stroke-opacity:1"
         d="m 318.03478,89.247546 -4.99764,2.88539 17.28832,13.266264 1.49367,-5.574432 A 24.718279,24.718279 0 0 1 318.03478,89.247546 Z"
         transform="matrix(0.81346417,-0.21796707,0.21796707,0.81346417,198.34287,75.404482)"
         id="path52" />
      <path
         style="fill:#f5a623;fill-opacity:1;stroke:none;stroke-width:2.29007;stroke-dasharray:none;stroke-opacity:1"
         d="m 362.62667,83.393274 a 24.718279,24.718279 0 0 1 -10.59409,13.814125 l 2.86196,4.957061 13.26566,-17.28848 z"
         transform="matrix(0.81346417,-0.21796707,0.21796707,0.81346417,198.34287,75.404482)"
         id="path49" />
      <path
         style="fill:#f5a623;fill-opacity:1;stroke:none;stroke-width:2.29007;stroke-dasharray:none;stroke-opacity:1"
         d="m 309.38301,69.126679 2.84476,21.605255 4.99765,-2.88539 a 24.718279,24.718279 0 0 1 -2.26798,-17.226201 z"
         transform="matrix(0.81346417,-0.21796707,0.21796707,0.81346417,198.34287,75.404482)"
         id="path46" />
      <path
         style="fill:#f5a623;fill-opacity:1;stroke:none;stroke-width:2.29007;stroke-dasharray:none;stroke-opacity:1"
         d="m 365.73484,61.707909 -4.99765,2.88539 a 24.718279,24.718279 0 0 1 2.26798,17.226201 l 5.57383,1.493505 z"
         transform="matrix(0.81346417,-0.21796707,0.21796707,0.81346417,198.34287,75.404482)"
         id="path41" />
      <path
         style="fill:#f5a623;fill-opacity:1;stroke:none;stroke-width:2.29007;stroke-dasharray:none;stroke-opacity:1"
         d="m 323.06807,50.275384 -13.26626,17.288321 5.57443,1.493663 a 24.718279,24.718279 0 0 1 10.57722,-13.784342 z"
         transform="matrix(0.81346417,-0.21796707,0.21796707,0.81346417,198.34287,75.404482)"
         id="path40" />
      <path
         style="fill:#f5a623;fill-opacity:1;stroke:none;stroke-width:2.29007;stroke-dasharray:none;stroke-opacity:1"
         d="m 347.63715,47.040646 -1.49367,5.574429 a 24.718279,24.718279 0 0 1 13.7851,10.576788 l 4.99689,-2.884956 z"
         transform="matrix(0.81346417,-0.21796707,0.21796707,0.81346417,198.34287,75.404482)"
         id="path39" />
      <path
         style="fill:#f5a623;fill-opacity:1;stroke:none;stroke-width:2.29007;stroke-dasharray:none;stroke-opacity:1"
         d="m 346.07476,46.622007 -21.60525,2.844759 2.88495,4.99689 a 24.718279,24.718279 0 0 1 17.22664,-2.26722 z"
         transform="matrix(0.81346417,-0.21796707,0.21796707,0.81346417,198.34287,75.404482)"
         id="path31" />
    </g>
    <path
       id="circle35"
       style="fill:#fafcee;fill-opacity:1;stroke:none;stroke-width:2.20142;stroke-dasharray:none;stroke-opacity:1"
       d="m 144.31755,106.36054 a 10.440182,10.440182 0 0 0 -10.44001,10.44001 10.440182,10.440182 0 0 0 10.44001,10.44067 10.440182,10.440182 0 0 0 10.44001,-10.44067 10.440182,10.440182 0 0 0 -10.44001,-10.44001 z m -0.58179,2.30675 a 8.1546028,8.1546028 0 0 1 6.34768,2.36737 8.1546028,8.1546028 0 0 1 0,11.53244 8.1546028,8.1546028 0 0 1 -11.53179,0 8.1546028,8.1546028 0 0 1 0,-11.53244 8.1546028,8.1546028 0 0 1 5.18411,-2.36737 z" />
    <circle
       style="fill:#3a3539;fill-opacity:1;stroke:none;stroke-width:1.34859;stroke-dasharray:none;stroke-opacity:1"
       id="circle36"
       cx="144.31749"
       cy="116.80082"
       r="6.3956766" />
  </g>
</svg>
